<svg width="463" height="463" xmlns="http://www.w3.org/2000/svg" xmlns:xlink="http://www.w3.org/1999/xlink" xml:space="preserve" overflow="hidden"><defs><clipPath id="clip0"><rect x="0" y="0" width="463" height="463"/></clipPath></defs><g clip-path="url(#clip0)"><path d="M0.213059 0.814017 463.347 0.814017 463.347 462.49 0.213037 462.49Z" fill="#FFFF00"/><path d="M378.097 219.795C378.097 273.04 312.286 316.204 231.103 316.204 149.921 316.204 84.1098 273.04 84.1098 219.795 84.1098 166.55 149.921 123.387 231.103 123.387 312.286 123.387 378.097 166.55 378.097 219.795Z" fill="#FFFFFF" transform="matrix(1 0 0 1.03498 0.396743 -3.91928)"/><path d="M308.929 226.135C308.929 268.753 274.38 303.302 231.762 303.302 189.144 303.302 154.596 268.753 154.596 226.135 154.596 183.517 189.144 148.969 231.762 148.969 274.38 148.969 308.929 183.517 308.929 226.135Z" transform="matrix(1 0 0 1.01272 0 -3.85929)"/><path d="M262.586 177.582C262.586 181.843 259.101 185.297 254.801 185.297 250.502 185.297 247.016 181.843 247.016 177.582 247.016 173.321 250.502 169.867 254.801 169.867 259.101 169.867 262.586 173.321 262.586 177.582Z" fill="#FFFFFF"/><text font-family="Elephant,Elephant_MSFontService,sans-serif" font-weight="400" font-size="42.6667" transform="matrix(1.77645 0 0 2.2364 13.6483 425)">Panopticon</text></g></svg>